<svg xmlns="http://www.w3.org/2000/svg" width="32" height="32" fill="none" viewBox="0 0 32 32"><path fill="#fff" d="M0 0h32v32H0z"/><rect width="32" height="32" fill="#83b3d3" rx="4"/><path fill="#23a9e1" d="m4.254 8.182 11.673 13.782 11.637-13.71z"/><path fill="#fff" d="M13.128 13.346h6.29c-.472-.291-1.6-1.673-2.181-1.164-.037.036-1.782-2.073-2.91-1.055-.981.91-1.454-.109-2.545.582-1.31.873.727 1.346 1.345 1.636m9.709-1.273-3.564.036c1.418-1.636 2.036-1.454 3.564-.036"/><path fill="#491213" d="M26.4 9.31v-.874h.764zM8.51 12.726c.035.037.872-.873 2.217-1.782 1.237-.836 3.127-1.781 5.237-1.781 2.109 0 4.036.982 5.272 1.818 1.346.873 2.182 1.745 2.218 1.782l-.909 1.09c-1.636.219-2.8 1.419-4.4 1.164-.8-.145-.836-.582-1.054-1.054-.182-.364-.473-.291-.837-.437-.327-.145-.545-.4-1.236-.254-.582.145-.654 1.054-1.418 1.018-.4-.037-.436-.582-1.018-1.31-1.491-1.781-2.85-1.559-3.796.077zm-3.055-4.29v.69l-.582-.69zm19.6 0h1.163v1.09l-1.163 1.382zm-1.491 4.145V8.436h1.272v2.691zM23.382 8.8v3.6q-.6-.6-1.31-1.09zm-1.491-.11v2.474c-.182-.11-.327-.255-.545-.364-.255-.146-.51-.327-.8-.473zm-1.6-.072v1.564c-.364-.182-.764-.364-1.127-.546zm.218-.182h1.346l-1.346 1.673zm1.564 0h1.309l-1.31 2.582zm-3.2 0h1.418l-1.273 1.128c-.036 0-.073-.037-.109-.037zm-.182.146v.873a5.8 5.8 0 0 0-1.127-.328zm-1.527 0v.473c-.255-.037-.51-.073-.8-.11zm-2.473 0 .8.363c-.291 0-.546.037-.8.11zm-1.491 0 1.127.545c-.4.073-.763.182-1.127.328zm1.31.436-1.2-.582h1.2zm1.272-.145L14.764 8.4h1.018zm.254-.437h1.055l-1.055.473zm1.346 0h1.163l-1.163.582zm-4.51 1.128L11.6 8.436h1.418v1.091zm-1.308-.946 1.127.982c-.4.145-.764.327-1.127.546zM10 8.691l1.31 1.636q-.71.383-1.31.873zM8.473 8.8l1.309 2.545c-.473.364-.91.728-1.31 1.164zm1.345 2.182L8.51 8.4h1.31zm1.564-.91L10.036 8.4h1.346zm-4.582.655L5.636 9.345v-.909H6.8zm.218-2.29h1.273v4.072l-1.273-1.527zM4 8v5.31l12 14.508 12-14.364V8z"/><path fill="#23a9e1" d="M15.055 24.727 16 23.2l.946 1.527L16 26.254z"/><path fill="#dc6243" d="M17.89 19.127c-1.236-.727-.945-1.272.073-1.782.546-.254 1.746-1.236 2.219-.909zm-.836.91c-.727-.037-1.563-.146-2.29.036.436.109 1.527.436.509.69.363.51.945.473 1.309.037-.146-.073-.255-.182-.364-.255.4-.109.764-.327.836-.509m.437-.582c-.328-.291-.691-.291-.982 0-.436-.764-1.964-.51-2.691-.619.4.946 3.49 1.128 3.673.619m-2.473-.8c-.582-.182-2.473-.146-1.236-.655.4-.145 2.436.036 1.236.654m.727-1.091c-.181-.4.146-.873.618-.51.437.291-.218.728-.618.51m-1.054.036c-.837.255-1.928-.291-.582-.546.836-.181 1.709.182.582.546.036 0-.037 0 0 0m-.946-2.255c-.181.582-.545.691-.509 0 .037-.836.582-.618 1.164-.945.473-.255.727-1.236 1.563-.655.364.255.8.037.91.437 0-.037-1.055 2.436-.473 2.436-1.164 0-.655-1.382-.218-2.327-.437.218-1.128 1.563-.546 1.818-.29.4-1.236.945-1.709.545-.4-.363-.182-.836-.182-1.309m-1.454 1.019c-2.037 0-.655-3.128.036-2.946.8.255.691 2.982-.036 2.946m-2.255-2.982c-.945-.037-.545-.946.11-1.127.617-.182 1.89.4 2.327.8-.655.218-1.491.181-2.219.218-.072-.728-.254-.473-.218.109"/><path fill="#f49774" d="M17.018 17.382c-1.054-1.091 1.564-.982 2-1.382.291.11 2.546-1.964 3.091-1.818-.4.473-1.236 1.927-1.818 1.927-.473 0-.945-.073-1.309.255-.546.509-1.418.763-1.964 1.018"/><path fill="#f4b1a4" d="M17.346 16.073c-.582.327-1.128-.91-.11-.8.655.072 1.346-.073 1.964.036-.473.546-1.127.836-1.854.764"/><path fill="#fff" d="M9.49 15.6c.11.145.219.29.182.509 0 .145-.218.364-.072.436l.545-.654c-.145-.037-1.273-1.382-1.273-1.527l-.763.4c.036.145.29 0 .436 0 .182 0 .327.145.473.254-.4.327-1.382 1.2-1.491 1.2-.036 0-.255-.145-.255 0 0 .073.219.255.255.291l.51.618c.145-.072-.037-.182.035-.29.037-.073 1.164-.982 1.419-1.237m-1.236-1.636c.11-.037.146.109.218 0l-.581-.691c-.073-.11-.182-.218-.182 0 .036.145-1.455 1.345-1.527 1.382-.11.036-.182-.11-.255.036.182.218.327.4.51.618.072.073.108.146.18.218.074.073.037-.145.037-.145-.036-.11.11-.218.218-.291.364-.364 1.273-1.127 1.382-1.127m-2.072-.219c-.4.11-.873-.036-.982-.472-.146-.437.145-.873.472-1.128.328-.254.837-.218 1.019.182.072.182.036.4-.037.582-.036.11-.145.218 0 .29.218-.254.4-.508.618-.763-.254-.145-.363-.4-.545-.618-.218-.254-.473-.509-.836-.545-.691-.11-1.31.618-1.382 1.236-.037.327.073.655.29.945.183.219.437.4.583.655.072.036.654-.255.763-.29.073 0 .037-.037.037-.074 0 0-.182.073 0 0m9.272 8.582c-.254-.182-.945-1.09-1.09-1.273l-.073-.109-.073.037c-.036.036.036.145 0 .218-.182.29-1.345 1.164-1.418 1.236-.146.073-.291-.036-.364.073.182.218.655.836.727.836.11 0 .037-.181.037-.218.036-.072.618-.582.836-.763.073-.073.146.109.218.181.073.11.11.255.073.364-.036.073-.182.218-.073.29.146-.18.546-.654.619-.726.072-.073-.146 0-.11-.037-.072.037-.181.073-.254 0-.037 0-.255-.254-.218-.29.109-.073.218-.219.363-.255.219-.036.364.364.4.509s.037.29-.036.4c-.036.109-.11.182 0 .218l.509-.69c0 .036-.036.036-.073 0 .037.036-.036 0 0 0m-3.345-3.236c-.255 0-.51.109-.727.29-.51.437-.582 1.2-.182 1.746.473.618 1.236.691 1.854.255.51-.437.582-1.2.182-1.746a1.46 1.46 0 0 0-1.127-.545m.436.509c.328-.036.546.29.4.654-.145.364-.509.728-.873.873-.436.182-.727-.182-.545-.618.146-.364.51-.727.873-.873.036 0 .072-.036.145-.036m-1.018-1.673c.11 0 .218.146.29 0l-.508-.618c-.146.073 0 .145-.036.218-.073.11-.619.182-.764.218.036-.145.218-.618.29-.654.146-.11.219.109.292-.037l-.655-.763c-.073-.073-.145-.255-.218-.146 0 0 0 .364-.036.4-.037.073-.219.873-.437 1.055-.109.109-.545.473-.654.509-.11.036-.182-.145-.291 0l.582.69c.036.037.145.22.181.22.11.036 0-.22.037-.255.036-.11.582-.655.836-.691.327-.073.727-.182 1.091-.146.073 0-.073 0 0 0m8.8 2.437c.036.145.073.327.036.472-.036.219-.218.691-.509.546-.29-.146-.509-.4-.763-.618.181-.219.363-.4.69-.291.073.036.146 0 .073-.073-.109-.073-.727-.473-.763-.436-.073.072.109.218.036.363-.036.11-.145.182-.218.291-.182-.145-.436-.29-.255-.545.146-.146.291-.291.51-.328.145-.036.436.11.472-.036-.254-.11-.509-.255-.764-.364.037.182-.8 1.055-.981 1.273-.037.037-.146.146-.146.182 0 .109.146.036.146.036.109-.036 1.6 1.2 1.636 1.31.036.072-.036.145 0 .181 0 0 .036.037.073.037.109-.11 1.054-1.419 1.272-1.455l-.545-.873c-.145.073-.036.255 0 .328m-1.455 1.6c-.472-.328-1.309.29-1.454.363-.255.11-.436-.145-.291-.363a.64.64 0 0 1 .546-.291c.072 0 .327.036.327 0 .036-.037.036-.037 0-.073-.218-.146-.4-.291-.618-.4-.037.255-.328.4-.473.582-.182.218-.364.473-.364.727 0 .255.146.51.4.618.255.146.546.037.8-.109.146-.109.291-.218.437-.29.218-.11.545 0 .472.29-.072.255-.327.473-.581.546a.6.6 0 0 1-.437-.037c-.109-.036-.218-.182-.29-.036l.836.582c.036-.182.109-.255.254-.364.182-.145.327-.327.473-.51.29-.326.4-.908-.037-1.235m6.4-10.219q0 .056 0 0l-.327.364-.29.364c-.073.072-.11.109 0 .181.181-.109 1.272 1.746 1.2 2-.183.073-1.637-1.2-1.673-1.272 0-.037.072-.255-.037-.218-.036 0-.182.218-.218.254l-.218.255c.073.109.109 0 .218 0 .073.036.436.327.546.4-.182 0-.619.036-.691.036-.219.036-.11-.145-.255-.218l-.545.654-.328.364v.036c.073.073.037.037.146 0 .109-.036 1.563 1.164 1.6 1.237.073.109-.037.218.109.29l.436-.508c.037-.037.037-.037 0-.037-.109-.072-.109.037-.254.037-.11-.037-1.055-.8-1.382-1.091l1.927-.073c.073 0 .255.218.255.29-.037.074-.11.146 0 .183.109-.146.218-.255.327-.4l.036-.073c.037 0 .037-.036.037-.073l.036-.036c.11-.11.436-.473.4-.51-.11-.108-.145.11-.29 0-.074-.072-.292-.436-.328-.508-.073-.11.145-.219.218-.255.182-.109.764-.29.836.073 0 .073-.072.145-.036.182 0 0 .036.072.073.036l.763-.945-.072-.073c-.182.182-2-.546-2.11-.655-.036-.072-.036-.29-.108-.29m-.072.946c.29.109.545.218.836.364l-.218.109c-.073.036-.146.109-.218.181zm-2.4 2.8c-.4-.037-.8.145-1.091.473-.436.545-.4 1.345.145 1.781.546.437 1.346.328 1.782-.181.437-.546.4-1.346-.145-1.782a1.5 1.5 0 0 0-.691-.291m-.51.582c.219 0 .473.145.619.254.29.182.8.618.545.982 0-.036.037-.036-.036.036-.291.291-.8.037-1.055-.181-.254-.182-.727-.619-.436-.982a.6.6 0 0 1 .364-.11m-1.127 1.563c-.436-.036-.872.182-1.2.582-.218.291-.472.546-.69.837.072.109.181-.037.29.036.11.073 1.491 1.2 1.491 1.273.037.109-.072.145.037.218.036.036 1.054-1.237 1.163-1.455a1.08 1.08 0 0 0-.29-1.163c.036.036.072.036 0 0-.291-.219-.546-.328-.8-.328m-.4.582h.11c.509.146 1.236.764.763 1.31l-.145.145c-.073.072-1.528-1.091-1.455-1.164.146-.182.473-.327.727-.29"/></svg>