<svg xmlns="http://www.w3.org/2000/svg" width="74" height="70" fill="none"><path fill="#83b3d3" d="M70 46.7H4.2A4 4 0 0 0 0 51v3.5c0 2.4 1.9 4.3 4.1 4.3h1v1.1A10 10 0 0 0 14.5 70h44.7c5.4 0 9.7-4.5 9.7-10.1v-1.1h.9c2.3 0 4-1.9 4-4.3V51a4 4 0 0 0-3.8-4.3m-3.8 13.2c0 3.9-3 7-6.8 7H14.6a7 7 0 0 1-6.7-7v-1.1h58.3zm5-5.4q-.1 1.2-1.1 1.3H4q-1.2-.1-1.3-1.3V51Q3 49.8 4 49.7h66q1.1.1 1.2 1.3zM15.6 38.4l5.5 4.1 5.3-4.1 5.3 4.1 5.3-4.1 5.4 4.1 5.3-4.1 5.3 4.1 5.4-4.1 5.4 4.1 6.2-4.7-1.7-2.5-4.5 3.4-5.4-4.1-5.4 4.1-5.3-4.1-5.3 4.1-5.4-4.1-5.3 4.1-5.3-4.1-5.3 4.1-5.5-4.1-5.3 4.1-4.5-3.4-1.7 2.5 6.2 4.7zM8 31.5h61v-3.1C68.5 12.7 54.4 0 37 0S5.8 12.7 5 28.5v1.2l.1 1.8zM37 3c15.7 0 28.6 11.3 29.2 25.5H8C8.6 14.4 21.5 3 37 3"/><path fill="#83b3d3" d="M37 17.3a2 2 0 0 0 2-2 2 2 0 0 0-2-2 2 2 0 0 0-1.8 2q.1 1.8 1.9 2M29.3 12.2a2 2 0 0 0 1.9-2 2 2 0 0 0-2-2 2 2 0 0 0-1.8 2q.1 1.8 1.9 2M44.8 12.2a2 2 0 0 0 2-2 2 2 0 0 0-2-2 2 2 0 0 0-1.9 2q.2 1.8 2 2"/></svg>